<svg xmlns="http://www.w3.org/2000/svg" width="128pt" height="128pt" viewBox="0 0 128 128">
<g transform="translate(0 128) scale(.1 -.1)" fill="#0050ff">
<path d="M931 1104c-136-37-264-169-310-320-10-30-21-56-26-57-5-1-27 28-49 65-23 37-59 86-81 108-38 40-151 107-162 96-3-2-16-1-29 4-14 6-33 6-47 0-12-5-35-11-50-15-16-3-48-25-71-49-50-49-62-94-51-178 6-42 15-58 51-94 23-24 55-46 71-49 15-4 37-10 48-15 11-5 47-12 80-15 54-5 64-10 101-48 42-44 84-136 84-184 0-51-79-123-135-123-8 0-29 13-47 29-27 24-33 36-33 70 0 38 6 46 63 99 46 43 62 65 62 84 0 40-16 42-33 5-9-17-39-53-66-79-63-60-76-117-41-175 19-30 73-63 105-63 43 0 108 43 131 87 10 21 31 53 47 71 15 18 27 37 27 42 0 21 31 8 42-17 7-16 27-46 44-69 18-23 36-52 39-66 9-34 51-77 91-94 153-64 303 114 208 248-16 23-48 51-71 63-62 33-103 65-103 79 0 22 72 63 140 81 165 42 203 65 244 146 47 96 32 196-43 270-34 34-61 51-103 63-65 18-57 19-127 0zm146-41c106-50 151-169 102-270-33-68-79-99-180-122-116-27-169-53-222-110-45-48-86-137-88-189-3-131-59 15-67 174-5 121 7 187 53 283 89 186 276 294 402 234zm-702-134c67-40 133-122 166-207 19-47 23-76 23-162 1-60-5-124-13-150l-14-45-16 60c-41 143-90 185-239 200-79 8-109 19-146 53-119 111-33 301 131 289 36-2 68-14 108-38zm445-434c0-8 26-28 58-44 77-39 103-69 110-127 7-63-17-107-73-134-49-24-74-25-119-6-71 30-90 87-63 192 23 90 87 177 87 119z"/>
</g>
</svg>